<svg height="480pt" viewBox="0 -63 480 479" width="480pt" xmlns="http://www.w3.org/2000/svg"><path d="m456 280.5v-256c-.027344-8.824219-7.175781-15.972656-16-16h-400c-8.824219.027344-15.972656 7.175781-16 16v256c-8.824219.027344-15.972656 7.175781-16 16v8c0 22.089844 17.910156 40 40 40h384c22.089844 0 40-17.910156 40-40v-8c-.027344-8.824219-7.175781-15.972656-16-16zm-327.441406-167.519531c2.375-17.476563 12.84375-32.816407 28.253906-41.394531 15.410156-8.578126 33.960938-9.394532 50.066406-2.207032 14.378906-22.195312 38.691406-35.964844 65.121094-36.878906 39.921875 0 73.601562 33.839844 84.320312 80.238281 34.414063 2.316407 60.792969 31.5 59.625 65.972657-1.164062 34.46875-29.453124 61.804687-63.945312 61.789062h-72v-64h-80v64h-64c-33.753906-.199219-61.550781-26.574219-63.515625-60.269531-1.96875-33.699219 22.574219-63.128907 56.074219-67.25zm167.441406 183.519531c-.027344 8.824219-7.175781 15.972656-16 16h-80c-8.824219-.027344-15.972656-7.175781-16-16v-16h112zm0 0" fill="#78b9eb"/><g fill="#006df0"><path d="m464 273.972656v-249.472656c0-13.253906-10.746094-24-24-24h-400c-13.253906 0-24 10.746094-24 24v249.472656c-9.554688 3.378906-15.9570312 12.394532-16 22.527344v8c.0273438 26.5 21.5 47.972656 48 48h384c26.5-.027344 47.972656-21.5 48-48v-8c-.042969-10.132812-6.445312-19.148438-16-22.527344zm-432-249.472656c0-4.417969 3.582031-8 8-8h400c4.417969 0 8 3.582031 8 8v248h-416zm160 264h96v8c0 4.417969-3.582031 8-8 8h-80c-4.417969 0-8-3.582031-8-8zm272 16c0 17.671875-14.328125 32-32 32h-384c-17.671875 0-32-14.328125-32-32v-8c0-4.417969 3.582031-8 8-8h152v8c0 13.253906 10.746094 24 24 24h80c13.253906 0 24-10.746094 24-24v-8h152c4.417969 0 8 3.582031 8 8zm0 0"/><path d="m208 240.5v-56h64v56c0 4.417969 3.582031 8 8 8h72c37.511719-.222656 68.566406-29.207031 71.371094-66.613281 2.804687-37.40625-23.578125-70.699219-60.636719-76.515625-13.199219-47.894532-49.855469-80.871094-90.734375-80.871094-26.839844.71875-51.867188 13.714844-67.894531 35.257812-6.484375-2.164062-13.273438-3.261718-20.105469-3.257812-29.699219.09375-55.457031 20.546875-62.273438 49.457031-36.1875 7.390625-60.914062 40.964844-57.234374 77.714844 3.679687 36.753906 34.574218 64.757813 71.507812 64.828125h64c4.417969 0 8-3.582031 8-8zm8-72v-8c0-13.253906 10.746094-24 24-24s24 10.746094 24 24v8zm-24 8v56h-56c-29.546875-.15625-53.886719-23.238281-55.609375-52.738281-1.722656-29.496094 19.769531-55.253907 49.097656-58.847657 3.632813-.417968 6.519531-3.253906 7.007813-6.878906 2.003906-14.984375 10.964844-28.144531 24.179687-35.496094 13.210938-7.351562 29.117188-8.03125 42.910157-1.832031 3.476562 1.558594 7.570312.441407 9.78125-2.664062 12.917968-20.058594 34.792968-32.574219 58.632812-33.542969 34.953125 0 66.398438 30.449219 76.558594 74.03125.800781 3.429688 3.746094 5.933594 7.257812 6.167969 29.757813 2.480469 52.332032 27.875 51.3125 57.71875-1.019531 29.839843-25.273437 53.636719-55.128906 54.082031h-64v-56c0-4.417969-3.582031-8-8-8v-8c0-22.089844-17.910156-40-40-40s-40 17.910156-40 40v8c-4.417969 0-8 3.582031-8 8zm0 0"/></g></svg>