<?xml version="1.0" encoding="utf-8"?>
<!-- Generator: Adobe Illustrator 23.0.0, SVG Export Plug-In . SVG Version: 6.00 Build 0)  -->
<svg version="1.1" id="Layer_1" xmlns="http://www.w3.org/2000/svg" xmlns:xlink="http://www.w3.org/1999/xlink" x="0px" y="0px"
	 viewBox="0 0 1401 322" style="enable-background:new 0 0 1401 322;" xml:space="preserve">
<style type="text/css">
	.st0{fill:#232323;}
	.st1{fill:none;}
	.st2{font-family:'Lato-Light';}
	.st3{font-size:245.9619px;}
	.st4{letter-spacing:44;}
</style>
<g>
	<path class="st0" d="M106.97,267.8c-22.06,0-39.95-17.79-40.13-39.8H56.81c0.22,27.52,22.59,49.75,50.16,49.75
		c27.57,0,49.94-22.24,50.16-49.75h-10.03C146.91,250.01,129.02,267.8,106.97,267.8z"/>
	<path class="st0" d="M181.08,189.61c-22.51-55.06-47.28-109.2-71.06-163.73c-0.61-1.39-0.97-3-3.15-3.53
		c-0.89,1.79-1.9,3.63-2.74,5.54c-15.92,36-32.04,71.9-47.63,108.04c-9.45,21.89-21.1,42.97-27.44,66.05
		c-13.95,50.84,20.14,88.56,58.91,97.68c6.54,1.92,13.54,2.97,20.84,2.97c13.48,0,25.99-3.56,36.32-9.62
		C182.72,275.38,199.18,233.9,181.08,189.61z M111.04,291.75c-41.6,3.21-88.35-34.34-73.43-88.7c5.64-20.55,16.02-39.32,24.43-58.82
		c13.89-32.18,28.24-64.15,42.42-96.21c0.75-1.7,1.65-3.34,2.44-4.94c1.94,0.47,2.26,1.9,2.8,3.14
		c21.18,48.57,43.23,96.77,63.27,145.8C193.32,241.8,164.7,287.61,111.04,291.75z"/>
</g>
<rect x="265.72" y="82.09" class="st1" width="1439.28" height="360.62"/>
<text transform="matrix(1 0 0 1 265.7207 261.2725)"><tspan x="0" y="0" class="st0 st2 st3">Porta</tspan><tspan x="569.64" y="0" class="st0 st2 st3 st4"> </tspan><tspan x="680.69" y="0" class="st0 st2 st3">Fuel</tspan></text>
<rect x="834.34" y="176.27" class="st0" width="108.22" height="9.84"/>
<rect x="846.64" y="200.87" class="st0" width="31.98" height="12.3"/>
<rect x="898.29" y="200.87" class="st0" width="31.98" height="12.3"/>
<rect x="834.34" y="225.47" class="st0" width="108.22" height="9.84"/>
</svg>
