<svg id="Layer_1" data-name="Layer 1" xmlns="http://www.w3.org/2000/svg" viewBox="0 0 116.01 200">
  <defs>
    <style>
      .cls-1 {
        fill: #87daf4;
      }
    </style>
  </defs>
  <title>PortaFuel Icon</title>
  <g>
    <path class="cls-1" d="M746,300.64a28.64,28.64,0,0,1-28.63-28.4h-7.16a35.79,35.79,0,0,0,71.58,0h-7.16A28.63,28.63,0,0,1,746,300.64Z" transform="translate(-688.16 -125.49)"/>
    <path class="cls-1" d="M798.9,244.84c-16.06-39.29-33.73-77.91-50.7-116.83-.43-1-.69-2.14-2.24-2.52-.64,1.28-1.36,2.59-2,4-11.36,25.69-22.86,51.31-34,77.1-6.74,15.62-15.06,30.66-19.58,47.13-10,36.28,14.37,63.19,42,69.7a52.8,52.8,0,0,0,14.87,2.12,51.18,51.18,0,0,0,25.92-6.87C800.08,306,811.82,276.45,798.9,244.84Zm-50,72.89c-29.68,2.29-63-24.51-52.4-63.3,4-14.66,11.43-28.06,17.44-42,9.91-23,20.15-45.77,30.26-68.64.54-1.22,1.18-2.39,1.75-3.53,1.38.34,1.61,1.36,2,2.25,15.11,34.65,30.85,69.05,45.15,104C807.64,282.08,787.22,314.77,748.93,317.73Z" transform="translate(-688.16 -125.49)"/>
  </g>
</svg>
